<mxfile host="app.diagrams.net" modified="2023-11-02T07:48:04.111Z" agent="Mozilla/5.0 (Macintosh; Intel Mac OS X 10_15_7) AppleWebKit/537.36 (KHTML, like Gecko) Chrome/118.0.0.0 Safari/537.36" version="22.0.8" etag="xc-8UD_xqHvd1AD1A9EA" type="github">
  <diagram name="페이지-1" id="p4o6X-f2PQRHb7dczt0j">
    <mxGraphModel>
      <root>
        <mxCell id="0" />
        <mxCell id="1" parent="0" />
      </root>
    </mxGraphModel>
  </diagram>
</mxfile>
